<svg width="256" height="256" xmlns="http://www.w3.org/2000/svg">
 <!-- Created with Method Draw - http://github.com/duopixel/Method-Draw/ -->
 <g>
  <title>Layer 1</title>
  <path id="svg_4" d="m214.291414,177.43064c-17.165088,29.492587 -49.098807,49.378529 -85.806419,49.444847c-54.833183,-0.09474 -99.158099,-44.262565 -99.262706,-98.861273c0.104607,-54.62713 44.429523,-98.785481 99.262706,-98.889695c36.698101,0.066318 68.622312,19.942787 85.796909,49.435373l37.677605,21.638634l1.359893,0.776869c-12.467274,-57.317748 -63.582147,-100.2729 -124.834407,-100.291848c-70.590829,0.018948 -127.791938,57.005106 -127.801447,127.330667c0.019019,70.297139 57.220129,127.283297 127.801447,127.302245c61.26177,-0.018948 112.395662,-42.993048 124.834407,-100.32027l-1.340874,0.767395l-37.687115,21.667056zm41.025035,-49.416425l-67.994668,-39.118179l0,21.761796l-104.369439,0l0,34.684343l104.369439,0l0,21.761796l67.994668,-39.089757z" fill-opacity="null" stroke-width="1.5" stroke="#ffffff" fill="#fff"/>
 </g>
</svg>