<?xml version="1.0" encoding="UTF-8" standalone="no"?>
<!-- Uploaded to: SVG Repo, www.svgrepo.com, Transformed by: SVG Repo Mixer Tools -->

<svg
   fill="#ffffff"
   height="760.78125"
   width="765.625"
   version="1.1"
   viewBox="0 0 490 486.9"
   enable-background="new 0 0 512 512"
   id="svg3"
   xmlns="http://www.w3.org/2000/svg"
   xmlns:svg="http://www.w3.org/2000/svg">
  <defs
     id="defs3" />
  <g
     id="SVGRepo_iconCarrier"
     transform="translate(-11,-14.1)">
    <g
       id="g3">
      <g
         id="g2">
        <path
           d="m 480.6,341.4 c -11.3,0 -20.4,9.1 -20.4,20.4 v 98.4 H 51.8 v -98.4 c 0,-11.3 -9.1,-20.4 -20.4,-20.4 -11.3,0 -20.4,9.1 -20.4,20.4 v 118.8 c 0,11.3 9.1,20.4 20.4,20.4 h 449.2 c 11.3,0 20.4,-9.1 20.4,-20.4 V 361.8 c 0,-11.3 -9.1,-20.4 -20.4,-20.4 z"
           id="path1" />
        <path
           d="m 241,365.6 c 11.5,11.6 25.6,5.2 29.9,0 L 388.2,239.4 c 7.7,-8.3 7.2,-21.2 -1.1,-28.9 -8.3,-7.7 -21.2,-7.2 -28.8,1.1 l -81.9,88.1 V 34.5 c 0,-11.3 -9.1,-20.4 -20.4,-20.4 -11.3,0 -20.4,9.1 -20.4,20.4 v 265.3 l -81.9,-88.1 c -7.7,-8.3 -20.6,-8.7 -28.9,-1.1 -8.3,7.7 -8.7,20.6 -1.1,28.9 z"
           id="path2" />
      </g>
    </g>
  </g>
</svg>
