<svg width="256" height="256" xmlns="http://www.w3.org/2000/svg">
 <!-- Created with Method Draw - http://github.com/duopixel/Method-Draw/ -->
 <g>
  <title>Layer 1</title>
  <line stroke="#fff" stroke-linecap="null" stroke-linejoin="null" id="svg_11" y2="234.378167" x2="20.473936" y1="146.616804" x1="11.725239" stroke-width="20" fill="none"/>
  <line stroke="#fff" stroke-linecap="null" stroke-linejoin="null" id="svg_12" y2="28.559492" x2="98.966082" y1="53.195911" x1="18.391923" stroke-width="20" fill="none"/>
  <line stroke="#fff" stroke-linecap="null" stroke-linejoin="null" id="svg_13" y2="53.686109" x2="164.666761" y1="28.588013" x1="92.705816" fill-opacity="null" stroke-opacity="null" stroke-width="20" fill="none"/>
  <line stroke="#fff" stroke-linecap="null" stroke-linejoin="null" id="svg_14" y2="219.960995" x2="104.274468" y1="244.752494" x1="13.293884" fill-opacity="null" stroke-opacity="null" stroke-width="20" fill="none"/>
  <line stroke="#fff" stroke-linecap="null" stroke-linejoin="null" id="svg_15" y2="25.424019" x2="238.964609" y1="53.293951" x1="163.098131" fill-opacity="null" stroke-opacity="null" stroke-width="20" fill="none"/>
  <line stroke="#fff" stroke-linecap="null" stroke-linejoin="null" id="svg_16" y2="243.88262" x2="172.875336" y1="220.353153" x1="102.313679" fill-opacity="null" stroke-opacity="null" stroke-width="20" fill="none"/>
  <line stroke="#fff" stroke-linecap="null" stroke-linejoin="null" id="svg_17" y2="123.686268" x2="246.039496" y1="36.366976" x1="232.663357" fill-opacity="null" stroke-opacity="null" stroke-width="20" fill="none"/>
  <line stroke="#fff" stroke-linecap="null" stroke-linejoin="null" id="svg_18" y2="220.563496" x2="244.331825" y1="244.064436" x1="166.627553" fill-opacity="null" stroke-opacity="null" stroke-width="20" fill="none"/>
  <line stroke="#fff" stroke-linecap="null" stroke-linejoin="null" id="svg_19" y2="121.262028" x2="245.563567" y1="229.37278" x1="238.196342" fill-opacity="null" stroke-opacity="null" stroke-width="20" fill="none"/>
  <line stroke="#fff" stroke-linecap="null" stroke-linejoin="null" id="svg_20" y2="124.035645" x2="100.017774" y1="148.196127" x1="12.509555" fill-opacity="null" stroke-opacity="null" stroke-width="10" fill="none"/>
  <line stroke="#fff" stroke-linecap="null" stroke-linejoin="null" id="svg_21" y2="123.126554" x2="98.153239" y1="28.588013" x1="95.646997" fill-opacity="null" stroke-opacity="null" stroke-width="10" fill="none"/>
  <line stroke="#fff" stroke-linecap="null" stroke-linejoin="null" id="svg_22" y2="124.274504" x2="98.028465" y1="221.529626" x1="102.705842" fill-opacity="null" stroke-opacity="null" stroke-width="10" fill="none"/>
  <line stroke="#fff" stroke-linecap="null" stroke-linejoin="null" id="svg_23" y2="135.254924" x2="170.15697" y1="53.112132" x1="163.586542" fill-opacity="null" stroke-opacity="null" stroke-width="10" fill="none"/>
  <line stroke="#fff" stroke-linecap="null" stroke-linejoin="null" id="svg_24" y2="135.254929" x2="170.395831" y1="242.706145" x1="168.378001" fill-opacity="null" stroke-opacity="null" stroke-width="10" fill="none"/>
  <line stroke="#fff" stroke-linecap="null" stroke-linejoin="null" id="svg_25" y2="136.039236" x2="172.509917" y1="124.217461" x1="96.794942" fill-opacity="null" stroke-opacity="null" stroke-width="10" fill="none"/>
  <line stroke="#fff" stroke-linecap="null" stroke-linejoin="null" id="svg_26" y2="136.039238" x2="172.117759" y1="123.882347" x1="250.549309" fill-opacity="null" stroke-opacity="null" stroke-width="10" fill="none"/>
  <line stroke="#fff" stroke-linecap="null" stroke-linejoin="null" id="svg_27" y2="149.764761" x2="11.72524" y1="45.450802" x1="25.058603" fill-opacity="null" stroke-width="20" fill="none"/>
  <path stroke="#ffffff" id="svg_3" d="m54.343183,0.75856c-28.825158,0 -52.194274,22.269238 -52.194274,49.737726c0,27.47512 52.194274,120.172979 52.194274,120.172979s52.194274,-92.697859 52.194274,-120.172979c0,-27.468488 -23.362157,-49.737726 -52.194274,-49.737726zm0,73.505728c-13.772329,0 -24.941904,-10.637242 -24.941904,-23.768002s11.169575,-23.768002 24.941904,-23.768002s24.941904,10.643873 24.941904,23.768002s-11.169575,23.768002 -24.941904,23.768002z" stroke-width="2.5" fill="#fff"/>
 </g>
</svg>