<svg width="256" height="256" xmlns="http://www.w3.org/2000/svg">
 <!-- Created with Method Draw - http://github.com/duopixel/Method-Draw/ -->

 <g>
  <title>Layer 1</title>
  <path stroke="#fff" id="svg_2" d="m73.25883,57.71266c0,-30.49008 25.4532,-55.18708 55.42446,-55.18708c29.97125,0 55.03226,22.73621 55.03226,53.22629c0,30.49009 -9.76686,84.20677 -55.03226,83.81461c-45.2654,-0.39216 -55.42446,-51.36373 -55.42446,-81.85382zm183.03173,143.56775c0,-29.32443 -9.09338,-47.93227 -49.30809,-48.71659c-6.76517,0.78433 -132.35416,-1.56862 -140.29581,-1.96078c-38.23723,-2.74511 -66.70659,18.2857 -66.70659,47.61013l0.39216,14.3166c0.25454,10.97889 -0.5923,37.69725 0.09452,43.69891c2.51341,-0.12189 252.16966,-0.24378 255.75449,-0.36566c0.20168,-23.86299 -0.13236,-30.71963 0.06932,-54.58261z" fill-opacity="null" stroke-opacity="null" stroke-width="1.5" fill="#fff"/>
 </g>
</svg>