{
    "asset" : {
        "generator" : "Khronos glTF Blender I/O v1.4.40",
        "version" : "2.0"
    },
    "scene" : 0,
    "scenes" : [
        {
            "name" : "Scene",
            "nodes" : [
                0
            ]
        }
    ],
    "nodes" : [
        {
            "mesh" : 0,
            "name" : "AnyConv.com__APC",
            "rotation" : [
                0.7071068286895752,
                -0.7071068286895752,
                0,
                -3.090862321641907e-08
            ],
            "translation" : [
                0,
                0,
                -0.09026499837636948
            ]
        }
    ],
    "materials" : [
        {
            "doubleSided" : true,
            "name" : "Default_OBJ",
            "pbrMetallicRoughness" : {
                "baseColorFactor" : [
                    0.800000011920929,
                    0.800000011920929,
                    0.800000011920929,
                    1
                ],
                "metallicFactor" : 0,
                "roughnessFactor" : 0.5
            }
        }
    ],
    "meshes" : [
        {
            "name" : "AnyConv.com__APC",
            "primitives" : [
                {
                    "attributes" : {
                        "POSITION" : 0,
                        "NORMAL" : 1,
                        "TEXCOORD_0" : 2
                    },
                    "indices" : 3,
                    "material" : 0
                }
            ]
        }
    ],
    "accessors" : [
        {
            "bufferView" : 0,
            "componentType" : 5126,
            "count" : 10584,
            "max" : [
                1.5382390022277832,
                3.4899940490722656,
                -0.09166499972343445
            ],
            "min" : [
                -1.5203419923782349,
                -3.159965991973877,
                -2.777401924133301
            ],
            "type" : "VEC3"
        },
        {
            "bufferView" : 1,
            "componentType" : 5126,
            "count" : 10584,
            "type" : "VEC3"
        },
        {
            "bufferView" : 2,
            "componentType" : 5126,
            "count" : 10584,
            "type" : "VEC2"
        },
        {
            "bufferView" : 3,
            "componentType" : 5123,
            "count" : 30444,
            "type" : "SCALAR"
        }
    ],
    "bufferViews" : [
        {
            "buffer" : 0,
            "byteLength" : 127008,
            "byteOffset" : 0
        },
        {
            "buffer" : 0,
            "byteLength" : 127008,
            "byteOffset" : 127008
        },
        {
            "buffer" : 0,
            "byteLength" : 84672,
            "byteOffset" : 254016
        },
        {
            "buffer" : 0,
            "byteLength" : 60888,
            "byteOffset" : 338688
        }
    ],
    "buffers" : [
        {
            "byteLength" : 399576,
            "uri" : "data:application/octet-stream;base64,"
        }
    ]
}
