{
    "asset" : {
        "generator" : "Khronos glTF Blender I/O v1.4.40",
        "version" : "2.0"
    },
    "scene" : 0,
    "scenes" : [
        {
            "name" : "Scene",
            "nodes" : [
                0
            ]
        }
    ],
    "nodes" : [
        {
            "mesh" : 0,
            "name" : "Military_Bus_Tube_1.088",
            "rotation" : [
                0,
                -0.7071068286895752,
                -0.7071067094802856,
                -3.0908616110991716e-08
            ],
            "scale" : [
                0.07927447557449341,
                0.07927447557449341,
                0.07927447557449341
            ],
            "translation" : [
                0,
                0,
                0.22987616062164307
            ]
        }
    ],
    "materials" : [
        {
            "doubleSided" : true,
            "name" : "Indicator_2",
            "pbrMetallicRoughness" : {
                "baseColorFactor" : [
                    0.800000011920929,
                    0.800000011920929,
                    0.800000011920929,
                    1
                ],
                "metallicFactor" : 0,
                "roughnessFactor" : 0.5
            }
        },
        {
            "doubleSided" : true,
            "name" : "Indicator",
            "pbrMetallicRoughness" : {
                "baseColorFactor" : [
                    0.800000011920929,
                    0.800000011920929,
                    0.800000011920929,
                    1
                ],
                "metallicFactor" : 0,
                "roughnessFactor" : 0.5
            }
        },
        {
            "doubleSided" : true,
            "name" : "Black",
            "pbrMetallicRoughness" : {
                "baseColorFactor" : [
                    0.800000011920929,
                    0.800000011920929,
                    0.800000011920929,
                    1
                ],
                "metallicFactor" : 0,
                "roughnessFactor" : 0.5
            }
        },
        {
            "doubleSided" : true,
            "name" : "Mat.2",
            "pbrMetallicRoughness" : {
                "baseColorFactor" : [
                    0.800000011920929,
                    0.800000011920929,
                    0.800000011920929,
                    1
                ],
                "metallicFactor" : 0,
                "roughnessFactor" : 0.5
            }
        },
        {
            "doubleSided" : true,
            "name" : "default",
            "pbrMetallicRoughness" : {
                "baseColorFactor" : [
                    0.800000011920929,
                    0.800000011920929,
                    0.800000011920929,
                    1
                ],
                "metallicFactor" : 0,
                "roughnessFactor" : 0.5
            }
        },
        {
            "doubleSided" : true,
            "name" : "metal",
            "pbrMetallicRoughness" : {
                "baseColorFactor" : [
                    0.800000011920929,
                    0.800000011920929,
                    0.800000011920929,
                    1
                ],
                "metallicFactor" : 0,
                "roughnessFactor" : 0.5
            }
        },
        {
            "doubleSided" : true,
            "name" : "Mat.3",
            "pbrMetallicRoughness" : {
                "baseColorFactor" : [
                    0.800000011920929,
                    0.800000011920929,
                    0.800000011920929,
                    1
                ],
                "metallicFactor" : 0,
                "roughnessFactor" : 0.5
            }
        },
        {
            "doubleSided" : true,
            "name" : "Material.007",
            "pbrMetallicRoughness" : {
                "baseColorFactor" : [
                    0.800000011920929,
                    0.800000011920929,
                    0.800000011920929,
                    1
                ],
                "metallicFactor" : 0,
                "roughnessFactor" : 0.5
            }
        },
        {
            "doubleSided" : true,
            "name" : "Material.008",
            "pbrMetallicRoughness" : {
                "baseColorFactor" : [
                    0.800000011920929,
                    0.800000011920929,
                    0.800000011920929,
                    1
                ],
                "metallicFactor" : 0,
                "roughnessFactor" : 0.5
            }
        },
        {
            "doubleSided" : true,
            "name" : "wire_006134006",
            "pbrMetallicRoughness" : {
                "baseColorFactor" : [
                    0.800000011920929,
                    0.800000011920929,
                    0.800000011920929,
                    1
                ],
                "metallicFactor" : 0,
                "roughnessFactor" : 0.5
            }
        },
        {
            "doubleSided" : true,
            "name" : "Material.009",
            "pbrMetallicRoughness" : {
                "baseColorFactor" : [
                    0.800000011920929,
                    0.800000011920929,
                    0.800000011920929,
                    1
                ],
                "metallicFactor" : 0,
                "roughnessFactor" : 0.5
            }
        }
    ],
    "meshes" : [
        {
            "name" : "Military_Bus_Tube_1.088",
            "primitives" : [
                {
                    "attributes" : {
                        "POSITION" : 0,
                        "NORMAL" : 1,
                        "TEXCOORD_0" : 2
                    },
                    "indices" : 3,
                    "material" : 0
                },
                {
                    "attributes" : {
                        "POSITION" : 4,
                        "NORMAL" : 5,
                        "TEXCOORD_0" : 6
                    },
                    "indices" : 7,
                    "material" : 1
                },
                {
                    "attributes" : {
                        "POSITION" : 8,
                        "NORMAL" : 9,
                        "TEXCOORD_0" : 10
                    },
                    "indices" : 11,
                    "material" : 2
                },
                {
                    "attributes" : {
                        "POSITION" : 12,
                        "NORMAL" : 13,
                        "TEXCOORD_0" : 14
                    },
                    "indices" : 15,
                    "material" : 3
                },
                {
                    "attributes" : {
                        "POSITION" : 16,
                        "NORMAL" : 17,
                        "TEXCOORD_0" : 18
                    },
                    "indices" : 19,
                    "material" : 4
                },
                {
                    "attributes" : {
                        "POSITION" : 20,
                        "NORMAL" : 21,
                        "TEXCOORD_0" : 22
                    },
                    "indices" : 23,
                    "material" : 5
                },
                {
                    "attributes" : {
                        "POSITION" : 24,
                        "NORMAL" : 25,
                        "TEXCOORD_0" : 26
                    },
                    "indices" : 27,
                    "material" : 6
                },
                {
                    "attributes" : {
                        "POSITION" : 28,
                        "NORMAL" : 29,
                        "TEXCOORD_0" : 30
                    },
                    "indices" : 31,
                    "material" : 7
                },
                {
                    "attributes" : {
                        "POSITION" : 32,
                        "NORMAL" : 33,
                        "TEXCOORD_0" : 34
                    },
                    "indices" : 31,
                    "material" : 8
                },
                {
                    "attributes" : {
                        "POSITION" : 35,
                        "NORMAL" : 36,
                        "TEXCOORD_0" : 37
                    },
                    "indices" : 38,
                    "material" : 9
                },
                {
                    "attributes" : {
                        "POSITION" : 39,
                        "NORMAL" : 40,
                        "TEXCOORD_0" : 41
                    },
                    "indices" : 42,
                    "material" : 10
                }
            ]
        }
    ],
    "accessors" : [
        {
            "bufferView" : 0,
            "componentType" : 5126,
            "count" : 2792,
            "max" : [
                56.400726318359375,
                10.416789054870605,
                13.935943603515625
            ],
            "min" : [
                -40.84784698486328,
                -2.1193230152130127,
                -13.899017333984375
            ],
            "type" : "VEC3"
        },
        {
            "bufferView" : 1,
            "componentType" : 5126,
            "count" : 2792,
            "type" : "VEC3"
        },
        {
            "bufferView" : 2,
            "componentType" : 5126,
            "count" : 2792,
            "type" : "VEC2"
        },
        {
            "bufferView" : 3,
            "componentType" : 5123,
            "count" : 5874,
            "type" : "SCALAR"
        },
        {
            "bufferView" : 4,
            "componentType" : 5126,
            "count" : 2037,
            "max" : [
                40.88154220581055,
                6.686636924743652,
                13.583512306213379
            ],
            "min" : [
                -41.97977828979492,
                6.261229038238525,
                -13.619779586791992
            ],
            "type" : "VEC3"
        },
        {
            "bufferView" : 5,
            "componentType" : 5126,
            "count" : 2037,
            "type" : "VEC3"
        },
        {
            "bufferView" : 6,
            "componentType" : 5126,
            "count" : 2037,
            "type" : "VEC2"
        },
        {
            "bufferView" : 7,
            "componentType" : 5123,
            "count" : 7026,
            "type" : "SCALAR"
        },
        {
            "bufferView" : 8,
            "componentType" : 5126,
            "count" : 1090,
            "max" : [
                -60.459388732910156,
                4.764871120452881,
                10.61649227142334
            ],
            "min" : [
                -61.32666015625,
                3.290738105773926,
                -10.557198524475098
            ],
            "type" : "VEC3"
        },
        {
            "bufferView" : 9,
            "componentType" : 5126,
            "count" : 1090,
            "type" : "VEC3"
        },
        {
            "bufferView" : 10,
            "componentType" : 5126,
            "count" : 1090,
            "type" : "VEC2"
        },
        {
            "bufferView" : 11,
            "componentType" : 5123,
            "count" : 3912,
            "type" : "SCALAR"
        },
        {
            "bufferView" : 12,
            "componentType" : 5126,
            "count" : 5804,
            "max" : [
                56.96646499633789,
                25.55260467529297,
                14.40396785736084
            ],
            "min" : [
                -63.74446105957031,
                -0.175913006067276,
                -14.403949737548828
            ],
            "type" : "VEC3"
        },
        {
            "bufferView" : 13,
            "componentType" : 5126,
            "count" : 5804,
            "type" : "VEC3"
        },
        {
            "bufferView" : 14,
            "componentType" : 5126,
            "count" : 5804,
            "type" : "VEC2"
        },
        {
            "bufferView" : 15,
            "componentType" : 5123,
            "count" : 16098,
            "type" : "SCALAR"
        },
        {
            "bufferView" : 16,
            "componentType" : 5126,
            "count" : 5490,
            "max" : [
                -57.519142150878906,
                21.640729904174805,
                13.028566360473633
            ],
            "min" : [
                -63.662025451660156,
                18.45882797241211,
                -12.80019474029541
            ],
            "type" : "VEC3"
        },
        {
            "bufferView" : 17,
            "componentType" : 5126,
            "count" : 5490,
            "type" : "VEC3"
        },
        {
            "bufferView" : 18,
            "componentType" : 5126,
            "count" : 5490,
            "type" : "VEC2"
        },
        {
            "bufferView" : 19,
            "componentType" : 5123,
            "count" : 29112,
            "type" : "SCALAR"
        },
        {
            "bufferView" : 20,
            "componentType" : 5126,
            "count" : 151,
            "max" : [
                -21.567405700683594,
                25.55260467529297,
                7.389750003814697
            ],
            "min" : [
                -32.76987075805664,
                24.975908279418945,
                -7.389729976654053
            ],
            "type" : "VEC3"
        },
        {
            "bufferView" : 21,
            "componentType" : 5126,
            "count" : 151,
            "type" : "VEC3"
        },
        {
            "bufferView" : 22,
            "componentType" : 5126,
            "count" : 151,
            "type" : "VEC2"
        },
        {
            "bufferView" : 23,
            "componentType" : 5123,
            "count" : 354,
            "type" : "SCALAR"
        },
        {
            "bufferView" : 24,
            "componentType" : 5126,
            "count" : 148,
            "max" : [
                56.483787536621094,
                20.776649475097656,
                11.802138328552246
            ],
            "min" : [
                -60.73560333251953,
                7.574248790740967,
                -11.802115440368652
            ],
            "type" : "VEC3"
        },
        {
            "bufferView" : 25,
            "componentType" : 5126,
            "count" : 148,
            "type" : "VEC3"
        },
        {
            "bufferView" : 26,
            "componentType" : 5126,
            "count" : 148,
            "type" : "VEC2"
        },
        {
            "bufferView" : 27,
            "componentType" : 5123,
            "count" : 252,
            "type" : "SCALAR"
        },
        {
            "bufferView" : 28,
            "componentType" : 5126,
            "count" : 8,
            "max" : [
                -61.1228141784668,
                4.456561088562012,
                10.373031616210938
            ],
            "min" : [
                -61.32666015625,
                3.4652349948883057,
                -10.313736915588379
            ],
            "type" : "VEC3"
        },
        {
            "bufferView" : 29,
            "componentType" : 5126,
            "count" : 8,
            "type" : "VEC3"
        },
        {
            "bufferView" : 30,
            "componentType" : 5126,
            "count" : 8,
            "type" : "VEC2"
        },
        {
            "bufferView" : 31,
            "componentType" : 5123,
            "count" : 12,
            "type" : "SCALAR"
        },
        {
            "bufferView" : 32,
            "componentType" : 5126,
            "count" : 8,
            "max" : [
                -61.1228141784668,
                4.456561088562012,
                8.369407653808594
            ],
            "min" : [
                -61.32666015625,
                3.4652349948883057,
                -8.339138984680176
            ],
            "type" : "VEC3"
        },
        {
            "bufferView" : 33,
            "componentType" : 5126,
            "count" : 8,
            "type" : "VEC3"
        },
        {
            "bufferView" : 34,
            "componentType" : 5126,
            "count" : 8,
            "type" : "VEC2"
        },
        {
            "bufferView" : 35,
            "componentType" : 5126,
            "count" : 1298,
            "max" : [
                -36.17041778564453,
                29.026865005493164,
                0.7940459847450256
            ],
            "min" : [
                -57.87130355834961,
                26.51026153564453,
                -1.885673999786377
            ],
            "type" : "VEC3"
        },
        {
            "bufferView" : 36,
            "componentType" : 5126,
            "count" : 1298,
            "type" : "VEC3"
        },
        {
            "bufferView" : 37,
            "componentType" : 5126,
            "count" : 1298,
            "type" : "VEC2"
        },
        {
            "bufferView" : 38,
            "componentType" : 5123,
            "count" : 2700,
            "type" : "SCALAR"
        },
        {
            "bufferView" : 39,
            "componentType" : 5126,
            "count" : 4471,
            "max" : [
                -22.104904174804688,
                32.71784210205078,
                5.174345016479492
            ],
            "min" : [
                -57.87130355834961,
                21.874439239501953,
                -3.841912031173706
            ],
            "type" : "VEC3"
        },
        {
            "bufferView" : 40,
            "componentType" : 5126,
            "count" : 4471,
            "type" : "VEC3"
        },
        {
            "bufferView" : 41,
            "componentType" : 5126,
            "count" : 4471,
            "type" : "VEC2"
        },
        {
            "bufferView" : 42,
            "componentType" : 5123,
            "count" : 10665,
            "type" : "SCALAR"
        }
    ],
    "bufferViews" : [
        {
            "buffer" : 0,
            "byteLength" : 33504,
            "byteOffset" : 0
        },
        {
            "buffer" : 0,
            "byteLength" : 33504,
            "byteOffset" : 33504
        },
        {
            "buffer" : 0,
            "byteLength" : 22336,
            "byteOffset" : 67008
        },
        {
            "buffer" : 0,
            "byteLength" : 11748,
            "byteOffset" : 89344
        },
        {
            "buffer" : 0,
            "byteLength" : 24444,
            "byteOffset" : 101092
        },
        {
            "buffer" : 0,
            "byteLength" : 24444,
            "byteOffset" : 125536
        },
        {
            "buffer" : 0,
            "byteLength" : 16296,
            "byteOffset" : 149980
        },
        {
            "buffer" : 0,
            "byteLength" : 14052,
            "byteOffset" : 166276
        },
        {
            "buffer" : 0,
            "byteLength" : 13080,
            "byteOffset" : 180328
        },
        {
            "buffer" : 0,
            "byteLength" : 13080,
            "byteOffset" : 193408
        },
        {
            "buffer" : 0,
            "byteLength" : 8720,
            "byteOffset" : 206488
        },
        {
            "buffer" : 0,
            "byteLength" : 7824,
            "byteOffset" : 215208
        },
        {
            "buffer" : 0,
            "byteLength" : 69648,
            "byteOffset" : 223032
        },
        {
            "buffer" : 0,
            "byteLength" : 69648,
            "byteOffset" : 292680
        },
        {
            "buffer" : 0,
            "byteLength" : 46432,
            "byteOffset" : 362328
        },
        {
            "buffer" : 0,
            "byteLength" : 32196,
            "byteOffset" : 408760
        },
        {
            "buffer" : 0,
            "byteLength" : 65880,
            "byteOffset" : 440956
        },
        {
            "buffer" : 0,
            "byteLength" : 65880,
            "byteOffset" : 506836
        },
        {
            "buffer" : 0,
            "byteLength" : 43920,
            "byteOffset" : 572716
        },
        {
            "buffer" : 0,
            "byteLength" : 58224,
            "byteOffset" : 616636
        },
        {
            "buffer" : 0,
            "byteLength" : 1812,
            "byteOffset" : 674860
        },
        {
            "buffer" : 0,
            "byteLength" : 1812,
            "byteOffset" : 676672
        },
        {
            "buffer" : 0,
            "byteLength" : 1208,
            "byteOffset" : 678484
        },
        {
            "buffer" : 0,
            "byteLength" : 708,
            "byteOffset" : 679692
        },
        {
            "buffer" : 0,
            "byteLength" : 1776,
            "byteOffset" : 680400
        },
        {
            "buffer" : 0,
            "byteLength" : 1776,
            "byteOffset" : 682176
        },
        {
            "buffer" : 0,
            "byteLength" : 1184,
            "byteOffset" : 683952
        },
        {
            "buffer" : 0,
            "byteLength" : 504,
            "byteOffset" : 685136
        },
        {
            "buffer" : 0,
            "byteLength" : 96,
            "byteOffset" : 685640
        },
        {
            "buffer" : 0,
            "byteLength" : 96,
            "byteOffset" : 685736
        },
        {
            "buffer" : 0,
            "byteLength" : 64,
            "byteOffset" : 685832
        },
        {
            "buffer" : 0,
            "byteLength" : 24,
            "byteOffset" : 685896
        },
        {
            "buffer" : 0,
            "byteLength" : 96,
            "byteOffset" : 685920
        },
        {
            "buffer" : 0,
            "byteLength" : 96,
            "byteOffset" : 686016
        },
        {
            "buffer" : 0,
            "byteLength" : 64,
            "byteOffset" : 686112
        },
        {
            "buffer" : 0,
            "byteLength" : 15576,
            "byteOffset" : 686176
        },
        {
            "buffer" : 0,
            "byteLength" : 15576,
            "byteOffset" : 701752
        },
        {
            "buffer" : 0,
            "byteLength" : 10384,
            "byteOffset" : 717328
        },
        {
            "buffer" : 0,
            "byteLength" : 5400,
            "byteOffset" : 727712
        },
        {
            "buffer" : 0,
            "byteLength" : 53652,
            "byteOffset" : 733112
        },
        {
            "buffer" : 0,
            "byteLength" : 53652,
            "byteOffset" : 786764
        },
        {
            "buffer" : 0,
            "byteLength" : 35768,
            "byteOffset" : 840416
        },
        {
            "buffer" : 0,
            "byteLength" : 21330,
            "byteOffset" : 876184
        }
    ],
    "buffers" : [
        {
            "byteLength" : 897516,
            "uri" : "data:application/octet-stream;base64,"
        }
    ]
}
